<?xml version="1.0" encoding="UTF-8"?>
<svg width="249px" height="51px" viewBox="0 0 249 51" version="1.1" xmlns="http://www.w3.org/2000/svg" xmlns:xlink="http://www.w3.org/1999/xlink">
    <!-- Generator: Sketch 55.2 (78181) - https://sketchapp.com -->
    <title>Group 3</title>
    <desc>Created with Sketch.</desc>
    <defs>
        <filter x="-5.0%" y="-27.3%" width="110.0%" height="154.5%" filterUnits="objectBoundingBox" id="filter-1">
            <feOffset dx="0" dy="2" in="SourceAlpha" result="shadowOffsetOuter1"></feOffset>
            <feGaussianBlur stdDeviation="2" in="shadowOffsetOuter1" result="shadowBlurOuter1"></feGaussianBlur>
            <feColorMatrix values="0 0 0 0 0   0 0 0 0 0   0 0 0 0 0  0 0 0 0.5 0" type="matrix" in="shadowBlurOuter1" result="shadowMatrixOuter1"></feColorMatrix>
            <feMerge>
                <feMergeNode in="shadowMatrixOuter1"></feMergeNode>
                <feMergeNode in="SourceGraphic"></feMergeNode>
            </feMerge>
        </filter>
        <polygon id="path-2" points="0 0.0989583333 241 0.0989583333 241 43.0989583 0 43.0989583"></polygon>
    </defs>
    <g id="English" stroke="none" stroke-width="1" fill="none" fill-rule="evenodd">
        <g id="Web---ENG" transform="translate(-334.000000, -2583.000000)">
            <g id="VP-3" transform="translate(-1.000000, 2233.000000)">
                <g id="Logos" transform="translate(147.000000, 143.000000)">
                    <g id="Group-3" filter="url(#filter-1)" transform="translate(192.000000, 209.000000)">
                        <mask id="mask-3" fill="white">
                            <use xlink:href="#path-2"></use>
                        </mask>
                        <g id="Clip-2"></g>
                        <path d="M182.072408,22.610723 C181.315667,24.760723 179.931876,26.1518995 176.406294,26.1518995 L174.013934,26.1518995 L174.013934,12.9989583 L177.28643,12.9989583 C180.309617,12.9989583 182.450149,14.8960172 182.450149,19.4489583 C182.322976,20.7136642 182.322976,21.7254289 182.072408,22.610723 L182.072408,22.610723 Z M168.472474,26.0254289 L166.081374,26.0254289 C162.428618,26.0254289 161.169482,24.6342525 160.415259,22.4842525 C160.163432,21.7254289 160.163432,20.5871936 160.163432,19.4489583 C160.163432,14.8960172 162.303964,12.9989583 165.324633,12.9989583 L168.599647,12.9989583 L168.599647,26.0254289 L168.472474,26.0254289 Z M176.532207,8.44601716 L165.954201,8.44601716 C158.02164,8.44601716 154.873799,12.493076 154.873799,19.4489583 C154.873799,20.5871936 155.000972,21.5989583 155.126885,22.4842525 C156.008281,27.4166054 158.904295,30.4518995 166.333201,30.4518995 L168.724301,30.4518995 L168.724301,33.2342525 L174.013934,33.2342525 L174.013934,30.4518995 L176.279121,30.4518995 C183.709286,30.4518995 186.6053,27.4166054 187.486695,22.4842525 C187.61135,21.5989583 187.738523,20.5871936 187.738523,19.4489583 C187.61135,12.493076 184.338854,8.44601716 176.532207,8.44601716 L176.532207,8.44601716 Z M204.485039,29.060723 L202.720989,29.060723 C198.314011,29.060723 196.552479,27.0371936 196.552479,22.610723 C196.552479,18.310723 198.062184,16.160723 202.720989,16.160723 L204.485039,16.160723 C209.016672,16.160723 210.653549,18.310723 210.653549,22.610723 C210.653549,27.0371936 209.016672,29.060723 204.485039,29.060723 L204.485039,29.060723 Z M215.941923,22.610723 C215.941923,15.1489583 212.669427,11.6077819 204.609694,11.6077819 L202.720989,11.6077819 C194.663774,11.6077819 191.38876,15.1489583 191.38876,22.610723 C191.38876,29.9460172 194.663774,33.6136642 202.720989,33.6136642 L204.485039,33.6136642 C212.669427,33.4871936 215.941923,29.9460172 215.941923,22.610723 L215.941923,22.610723 Z M119.241493,33.360723 L119.241493,16.9195466 C119.241493,16.6666054 119.49332,16.4136642 119.745148,16.4136642 L132.966082,16.4136642 L132.966082,11.860723 L117.099702,11.860723 C115.210997,11.860723 113.95186,13.3783701 113.95186,15.0224877 L113.95186,33.2342525 L119.241493,33.2342525 L119.241493,33.360723 Z M97.0806892,28.8077819 C96.8288619,28.8077819 96.5770346,28.5548407 96.5770346,28.3018995 L96.5770346,24.5077819 L109.922623,24.5077819 L109.922623,20.0813113 L96.5770346,20.0813113 L96.5770346,16.793076 C96.5770346,16.5401348 96.8288619,16.2871936 97.0806892,16.2871936 L110.301623,16.2871936 L110.301623,11.7342525 L94.4352433,11.7342525 C92.5465384,11.7342525 91.2874018,13.2518995 91.2874018,14.8960172 L91.2874018,29.9460172 C91.2874018,31.5901348 92.6737112,33.1077819 94.4352433,33.1077819 L110.301623,33.1077819 L110.301623,28.5548407 L97.0806892,28.5548407 L97.0806892,28.8077819 Z M82.8524459,7.9401348 C80.3341728,7.9401348 78.6960361,9.33131127 77.5640723,11.9871936 L70.6388211,28.1754289 L63.7135699,11.9871936 C62.580347,9.33131127 60.9434695,7.9401348 58.4251963,7.9401348 C56.0315777,7.9401348 53.6404773,9.58425245 53.6404773,13.2518995 L53.6404773,33.2342525 L58.9288509,33.2342525 L58.9288509,13.8842525 L65.9800158,29.9460172 C66.8614114,32.2224877 68.4982889,33.6136642 70.6388211,33.6136642 C72.905267,33.6136642 74.4162308,32.2224877 75.2976264,29.9460172 L82.3487913,13.8842525 L82.3487913,33.360723 L87.6371649,33.360723 L87.6371649,13.3783701 C87.6371649,9.71072304 85.2448054,7.9401348 82.8524459,7.9401348 L82.8524459,7.9401348 Z M138.380369,24.5077819 L141.652865,16.6666054 C141.780038,16.4136642 141.905951,16.4136642 142.030606,16.4136642 C142.157779,16.4136642 142.409606,16.4136642 142.409606,16.6666054 L145.683361,24.5077819 L138.380369,24.5077819 Z M146.564757,14.2636642 C145.683361,12.3666054 143.919311,11.3548407 142.157779,11.3548407 C140.393728,11.3548407 138.632196,12.3666054 137.750801,14.2636642 L129.061499,33.360723 L134.727614,33.360723 L136.616319,28.8077819 L147.69672,28.8077819 L149.585425,33.360723 L155.25154,33.360723 L146.564757,14.2636642 Z M235.711626,11.860723 L235.711626,19.9548407 L224.883052,19.9548407 L224.883052,11.860723 L219.467505,11.860723 L219.467505,33.360723 L224.883052,33.360723 L224.883052,24.6342525 L235.711626,24.6342525 L235.711626,33.360723 L241,33.360723 L241,11.860723 L235.711626,11.860723 Z M17.2514302,17.8048407 C15.7392072,17.8048407 14.6072434,16.5401348 14.6072434,15.1489583 C14.6072434,13.6313113 15.86638,12.493076 17.2514302,12.493076 C18.7623941,12.493076 19.8956171,13.7577819 19.8956171,15.1489583 C19.8956171,16.5401348 18.7623941,17.8048407 17.2514302,17.8048407 L17.2514302,17.8048407 Z M21.4053218,0.0989583333 C9.57069712,0.0989583333 0,9.71072304 0,21.5989583 C0,31.9695466 7.17833763,40.5695466 16.8736893,42.593076 L16.8736893,23.243076 C16.8736893,22.3577819 17.6279121,21.5989583 18.5105668,21.4724877 L19.3919624,21.4724877 L21.1547536,21.4724877 C21.2806673,21.4724877 21.4053218,21.3460172 21.4053218,21.2195466 L21.4053218,0.0989583333 Z M36.1384789,33.360723 C34.6262559,33.360723 33.4942921,32.0960172 33.4942921,30.7048407 C33.4942921,29.1871936 34.7534287,28.0489583 36.1384789,28.0489583 C37.6494428,28.0489583 38.7826657,29.3136642 38.7826657,30.7048407 C38.7826657,32.0960172 37.6494428,33.360723 36.1384789,33.360723 L36.1384789,33.360723 Z M29.842796,33.360723 C28.330573,33.360723 27.1986092,32.0960172 27.1986092,30.7048407 C27.1986092,29.1871936 28.4577458,28.0489583 29.842796,28.0489583 C31.3537599,28.0489583 32.4869828,29.3136642 32.4869828,30.7048407 C32.4869828,32.0960172 31.3537599,33.360723 29.842796,33.360723 L29.842796,33.360723 Z M23.5471131,33.360723 C22.0348901,33.360723 20.9029263,32.0960172 20.9029263,30.7048407 C20.9029263,29.1871936 22.1620629,28.0489583 23.5471131,28.0489583 C25.058077,28.0489583 26.1912999,29.3136642 26.1912999,30.7048407 C26.3172136,32.0960172 25.058077,33.360723 23.5471131,33.360723 L23.5471131,33.360723 Z M24.0507678,0.225428922 L24.0507678,22.3577819 C24.0507678,23.3695466 23.2940267,24.1283701 22.2879766,24.1283701 L19.6437897,24.1283701 C19.5166169,24.1283701 19.3919624,24.2548407 19.3919624,24.3813113 L19.3919624,42.9724877 C20.0215307,42.9724877 20.651099,43.0989583 21.4053218,43.0989583 C33.2424648,43.0989583 42.8106436,33.4871936 42.8106436,21.5989583 C42.8106436,10.5960172 34.6262559,1.4901348 24.0507678,0.225428922 L24.0507678,0.225428922 Z" id="Fill-1" fill="#FFFFFF" mask="url(#mask-3)"></path>
                    </g>
                </g>
            </g>
        </g>
    </g>
</svg>