<?xml version="1.0" encoding="UTF-8"?>
<svg width="104px" height="108px" viewBox="0 0 104 108" version="1.1" xmlns="http://www.w3.org/2000/svg" xmlns:xlink="http://www.w3.org/1999/xlink">
    <!-- Generator: Sketch 55.2 (78181) - https://sketchapp.com -->
    <title>Group 8</title>
    <desc>Created with Sketch.</desc>
    <g id="English" stroke="none" stroke-width="1" fill="none" fill-rule="evenodd">
        <g id="Web---ENG" transform="translate(-1028.000000, -2552.000000)">
            <g id="VP-3" transform="translate(-1.000000, 2233.000000)">
                <g id="Logos" transform="translate(147.000000, 143.000000)">
                    <g id="Group-8" transform="translate(882.000000, 176.000000)">
                        <polygon id="Fill-1" fill="#FFFFFF" points="0 108 104 108 104 0 0 0"></polygon>
                        <polygon id="Fill-2" fill="#CCCCCC" points="0 108 35 108 35 72 0 72"></polygon>
                        <polygon id="Fill-3" fill="#CCCCCC" points="69 108 104 108 104 72 69 72"></polygon>
                        <polygon id="Fill-4" fill="#CCCCCC" points="34 72 69 72 69 36 34 36"></polygon>
                        <polygon id="Fill-5" fill="#CCCCCC" points="69 36 104 36 104 0 69 0"></polygon>
                        <path d="M85.7606607,12.9357798 C82.4790062,12.9357798 79.8187447,15.5763543 79.8187447,18.8355343 C79.8187447,22.0944696 82.4792526,24.7382252 85.7606607,24.7382252 C88.0281782,24.7382252 89.9985507,23.4753205 90.9993826,21.6212168 L95,22.3563003 C93.5729152,26.0478679 89.9790859,28.6718027 85.7611534,28.6718027 C80.2913187,28.6718027 75.8585351,24.2676641 75.8585351,18.8352896 C75.8585351,13.404628 80.2913187,9.0004894 85.7611534,9.0004894 C89.8041498,9.0004894 93.2745382,11.4098209 94.8127444,14.8579105 L90.7330361,15.6079208 C89.6715925,13.9990081 87.8428937,12.9357798 85.7611534,12.9357798 L85.7606607,12.9357798 Z M64.9637084,56.2095369 L69.9158799,56.2095369 L69.9158799,52.7675648 L64.9637084,52.7675648 L64.9637084,56.2095369 Z M59.9979854,43.8112432 L63.498926,40.3328106 L65.9490178,42.7675911 L62.4480772,46.2445555 L59.9979854,43.8112432 Z M51.5934118,28.6710686 C46.1253018,28.6710686 41.6907935,24.26693 41.6907935,18.8345555 C41.6907935,13.4038939 46.1253018,9 51.5934118,9 C57.0632466,9 61.4975086,13.4038939 61.4975086,18.8345555 C61.4975086,24.26693 57.0632466,28.6710686 51.5934118,28.6710686 L51.5934118,28.6710686 Z M51.5934118,12.934801 C48.3117574,12.934801 45.6532206,15.5753755 45.6532206,18.8343108 C45.6532206,22.0932461 48.3120038,24.7370017 51.5934118,24.7370017 C54.8750663,24.7370017 57.5370526,22.0934908 57.5370526,18.8343108 C57.5370526,15.5751308 54.8750663,12.934801 51.5934118,12.934801 L51.5934118,12.934801 Z M41.089358,45.8968346 L37.5884174,42.4198702 L40.0399875,39.9850897 L43.5409281,43.4635223 L41.089358,45.8968346 Z M33.2726685,56.2097816 L38.2248401,56.2097816 L38.2248401,52.7675648 L33.2726685,52.7675648 L33.2726685,56.2097816 Z M20.8938411,98.9956038 L16.4381433,98.9956038 L16.4381433,84.2427917 L10.494749,84.2427917 L10.494749,80.3075013 L26.8357571,80.3075013 L26.8357571,84.2427917 L20.8938411,84.2427917 L20.8938411,98.9956038 Z M11.9812136,63.5865547 L11.9812136,44.8996757 L25.8460127,44.8996757 L25.8460127,48.8347214 L16.4381433,48.8347214 L16.4381433,63.5865547 L11.9812136,63.5865547 Z M22.3788274,17.5021555 L18.418125,22.2797087 L14.4574225,17.5021555 L14.4574225,28.1809314 L10,28.1809314 L10,9.49233953 L12.4759626,9.49233953 L18.4178786,16.8698467 L24.3597945,9.49233953 L26.8360035,9.49233953 L26.8360035,28.1809314 L22.378581,28.1809314 L22.3788274,17.5021555 Z M43.5411745,65.0229528 L40.0402339,68.5013854 L37.5884174,66.0678284 L41.089358,62.5896405 L43.5411745,65.0229528 Z M52.2894606,87.3588213 L52.4446857,87.3588213 L55.4917779,80.3067672 L60.5020972,80.3067672 L60.5020972,80.8042455 L53.9676158,94.3296345 C52.1601064,98.5233298 50.0175081,100.09774 45.0076815,98.2101118 L45.6273498,94.8298045 C47.3313757,95.4577087 48.3898627,95.4831576 49.2684857,93.5431637 L49.8881539,92.2347445 L43.664369,80.908733 L43.664369,80.3067672 L48.8555378,80.3067672 L52.2894606,87.3588213 Z M50.1089184,72.4393675 L53.5746254,72.4393675 L53.5746254,67.521111 L50.1089184,67.521111 L50.1089184,72.4393675 Z M50.1089184,40.9656088 L53.5746254,40.9656088 L53.5746254,36.0473523 L50.1089184,36.0473523 L50.1089184,40.9656088 Z M61.497755,54.2426258 C61.497755,59.6764685 57.063493,64.0788942 51.5936582,64.0788942 C46.1255482,64.0788942 41.6910398,59.6764685 41.6910398,54.2426258 C41.6910398,48.8117195 46.1255482,44.4078256 51.5936582,44.4078256 C57.063493,44.4078256 61.497755,48.8117195 61.497755,54.2426258 L61.497755,54.2426258 Z M51.5936582,48.3414031 C48.3120038,48.3414031 45.653467,50.9834458 45.653467,54.2426258 C45.653467,57.503274 48.3122502,60.1453167 51.5936582,60.1453167 C54.8753127,60.1453167 57.5372989,57.503274 57.5372989,54.2426258 C57.5372989,50.9834458 54.8753127,48.3414031 51.5936582,48.3414031 L51.5936582,48.3414031 Z M62.4483235,62.2416749 L65.9492642,65.7186393 L63.498926,68.1534198 L59.9979854,64.6749872 L62.4483235,62.2416749 Z M82.2949537,44.8991863 L87.4937606,44.8991863 C91.1863918,44.8991863 94.1787856,47.8723102 94.1787856,51.5381842 C94.1787856,55.2057711 91.1863918,58.1774268 87.4937606,58.1774268 L82.2949537,58.1774268 L82.2949537,63.5858206 L77.8375311,63.5858206 L77.8375311,44.8986969 L82.2949537,44.8991863 Z M82.2949537,54.2426258 L86.9985188,54.2426258 C88.5032161,54.2426258 89.7230878,53.0328213 89.7230878,51.5384289 C89.7230878,50.0457494 88.5032161,48.8344767 86.9985188,48.8344767 L82.2949537,48.8344767 L82.2949537,54.2426258 Z M82.2949537,80.3067672 L87.4937606,80.3067672 C91.1863918,80.3067672 94.1787856,83.2798911 94.1787856,86.9460098 C94.1787856,90.613352 91.1863918,93.5850077 87.4937606,93.5850077 L82.2949537,93.5850077 L82.2949537,98.9948697 L77.8375311,98.9948697 L77.8375311,80.3062778 L82.2949537,80.3067672 Z M82.2949537,89.6516749 L86.9985188,89.6516749 C88.5032161,89.6516749 89.7230878,88.4404022 89.7230878,86.9462545 C89.7230878,85.4533303 88.5032161,84.2420576 86.9985188,84.2420576 L82.2949537,84.2420576 L82.2949537,89.6516749 Z" id="Fill-6" fill="#00050A"></path>
                    </g>
                </g>
            </g>
        </g>
    </g>
</svg>