<?xml version="1.0" encoding="UTF-8"?>
<svg width="181px" height="65px" viewBox="0 0 181 65" version="1.1" xmlns="http://www.w3.org/2000/svg" xmlns:xlink="http://www.w3.org/1999/xlink">
    <!-- Generator: Sketch 55.2 (78181) - https://sketchapp.com -->
    <title>MTS_logo_2015</title>
    <desc>Created with Sketch.</desc>
    <g id="English" stroke="none" stroke-width="1" fill="none" fill-rule="evenodd">
        <g id="Web---ENG" transform="translate(-146.000000, -2400.000000)" fill-rule="nonzero">
            <g id="VP-3" transform="translate(-1.000000, 2233.000000)">
                <g id="Logos" transform="translate(147.000000, 143.000000)">
                    <g id="MTS_logo_2015" transform="translate(0.000000, 23.964286)">
                        <path d="M180.251799,39.2615207 C180.251799,39.2615207 176.323741,39.8099078 171.647482,39.8099078 C166.035971,39.8099078 164.913669,37.9819508 164.913669,33.7776498 L164.913669,28.4765745 C164.913669,24.0894777 165.848921,22.2615207 171.647482,22.2615207 C175.76259,22.2615207 179.690647,22.8099078 179.690647,22.8099078 L180.438849,14.7668971 C180.438849,14.7668971 175.388489,14.0357143 170.899281,14.0357143 C159.115108,14.0357143 155,17.874424 155,27.0142089 L155,35.0572197 C155,45.1109831 160.23741,48.0357143 170.899281,48.0357143 C175.201439,48.0357143 181,47.3045315 181,47.3045315 L180.251799,39.2615207 Z" id="Path" fill="#FFFFFF"></path>
                        <polygon id="Path" fill="#FFFFFF" points="122.567073 22.5832003 132.396341 22.5832003 132.396341 48.0357143 142.603659 48.0357143 142.603659 22.5832003 152.432927 22.5832003 153 14.0357143 122 14.0357143"></polygon>
                        <polygon id="Path" fill="#FFFFFF" points="102.255814 44.6167199 107.651163 31.7005188 108.209302 31.7005188 109.325581 48.0357143 119 48.0357143 116.767442 14.0357143 107.465116 14.0357143 99.4651163 33.410016 98.9069767 33.410016 90.3488372 14.0357143 81.2325581 14.0357143 79 48.0357143 88.4883721 48.0357143 89.4186047 31.7005188 89.9767442 31.7005188 95.9302326 44.6167199"></polygon>
                        <g id="XMLID_1_" transform="translate(0.000000, 0.035714)">
                            <g id="Group">
                                <path d="M65,6.5 L65,58.5 C65,62.0285714 62.0285714,65 58.5,65 L6.5,65 C2.97142857,65 0,62.0285714 0,58.5 L0,6.5 C0,2.97142857 2.97142857,0 6.5,0 L58.5,0 C62.0285714,0 65,2.97142857 65,6.5 Z M32.5,56.4571429 C44.5714286,56.4571429 50.1428571,46.8 50.1428571,37.1428571 C50.1428571,23.5857143 40.8571429,8.35714286 32.5,8.35714286 C24.3285714,8.35714286 14.8571429,23.7714286 14.8571429,37.3285714 C14.8571429,46.8 20.2428571,56.4571429 32.5,56.4571429 Z" id="Shape" fill="#FFFFFF"></path>
                                <path d="M50.1428571,37.1428571 C50.1428571,46.8 44.5714286,56.4571429 32.5,56.4571429 C20.2428571,56.4571429 14.8571429,46.8 14.8571429,37.3285714 C14.8571429,23.7714286 24.3285714,8.35714286 32.5,8.35714286 C40.8571429,8.35714286 50.1428571,23.5857143 50.1428571,37.1428571 Z" id="Path" fill="#000407"></path>
                            </g>
                        </g>
                    </g>
                </g>
            </g>
        </g>
    </g>
</svg>