<?xml version="1.0" encoding="UTF-8"?>
<svg width="103px" height="108px" viewBox="0 0 103 108" version="1.1" xmlns="http://www.w3.org/2000/svg" xmlns:xlink="http://www.w3.org/1999/xlink">
    <!-- Generator: Sketch 55.2 (78181) - https://sketchapp.com -->
    <title>Group 3</title>
    <desc>Created with Sketch.</desc>
    <defs>
        <polygon id="path-1" points="0 0 103 0 103 108 0 108"></polygon>
    </defs>
    <g id="English" stroke="none" stroke-width="1" fill="none" fill-rule="evenodd">
        <g id="Web---ENG" transform="translate(-1029.000000, -2376.000000)">
            <g id="VP-3" transform="translate(-1.000000, 2233.000000)">
                <g id="Logos" transform="translate(147.000000, 143.000000)">
                    <g id="Group-3" transform="translate(883.000000, 0.000000)">
                        <mask id="mask-2" fill="white">
                            <use xlink:href="#path-1"></use>
                        </mask>
                        <g id="Clip-2"></g>
                        <path d="M77.2506381,107.963218 C76.2152324,107.794219 74.962497,106.991084 74.3900755,106.12929 C73.834649,105.293596 73.6556868,104.607521 73.6698493,103.369484 C73.6948267,101.147426 74.412993,99.7336714 75.8887229,99.0015991 C76.8968337,98.501578 77.2060906,98.4775459 82.731001,98.474445 C85.7676932,98.4726362 87.6734474,98.4413687 87.6734474,98.3933047 C87.6734474,98.3501504 86.4042321,97.0893736 84.8533123,95.5916359 C83.302135,94.0936398 81.8652875,92.6444829 81.6600604,92.3713448 C80.3236377,90.5914246 80.2335129,88.6122712 81.3986983,86.6194222 C81.7280403,86.0560909 83.2362151,84.5154573 85.9080305,82.013026 L87.8238272,80.2186349 L82.5991612,80.187109 C76.8739162,80.1524823 77.0472134,80.1669532 75.9721528,79.6354061 C74.9828395,79.1462382 74.2111133,78.2079557 73.8493265,77.0541601 C73.6142294,76.3050329 73.549597,74.7320982 73.7205767,73.9281883 C74.0020237,72.6043597 74.67178,71.7097483 75.7908731,71.1621799 C77.0446384,70.5489757 76.5571918,70.5714573 87.9631344,70.5975566 L98.1377142,70.6208134 L98.6753733,70.8130696 C100.256163,71.3787265 101.703311,72.7229694 102.406027,74.2783323 C102.848669,75.2579602 102.995186,75.9742695 102.999912,77.1787132 C103.005743,78.7862747 102.723781,79.6640895 101.799873,80.9142716 C100.953214,82.0600564 98.4302337,84.4087344 94.3537583,87.8458306 C93.4602348,88.5990924 92.7271336,89.2360702 92.7243011,89.2608774 C92.7217261,89.2859431 93.8797016,90.3319821 95.2977516,91.5855235 C101.686058,97.2314985 101.574818,97.1206411 102.24303,98.5132064 C102.783779,99.6406442 102.921026,100.304755 102.928751,101.833502 C102.934673,102.987297 102.911241,103.238212 102.752106,103.742885 C102.215992,105.440372 100.67975,106.961884 98.7482456,107.708685 L98.0547994,107.976655 L87.7561048,107.986733 C82.0918871,107.992418 77.3641954,107.981823 77.2506381,107.963218 M46.9746132,107.968386 C45.5828282,107.801196 45.3219811,107.746671 44.8494694,107.524698 C43.9152611,107.08592 43.1407024,106.189758 42.8299005,105.188165 C42.6357458,104.561782 42.6192658,103.280591 42.7964255,102.597617 C43.1945198,101.063702 44.3445128,99.9083558 45.8696827,99.5096309 C46.1271822,99.4424446 46.9558158,99.349159 47.711062,99.3026454 C48.4660507,99.2558734 49.3224942,99.1610374 49.6139837,99.0917838 C50.3063999,98.9269189 51.4030905,98.4075171 51.8032448,98.0547891 C52.0852069,97.8064582 52.1161068,97.7418559 52.0792844,97.4798294 C52.0561094,97.3175486 51.3139957,95.7652866 50.4302572,94.0303296 C47.4842049,88.2484316 42.6347158,78.6020292 42.4047687,78.0663476 C42.0241844,77.1802637 41.8992971,76.5861817 41.8958369,75.6429894 C41.8933746,74.9623405 41.934317,74.6349365 42.0828943,74.1488694 C42.7804605,71.8660856 44.534805,70.5895459 47.0160707,70.5593121 C47.968819,70.5476837 48.5489655,70.6662933 49.2496218,71.0154037 C50.3718048,71.5746004 50.8105841,72.1304379 51.9721646,74.463353 C52.6743658,75.8740069 55.4816259,81.920774 56.8638835,84.9997155 C57.1345156,85.6031002 57.3763076,86.0982115 57.4007701,86.099762 C57.4249751,86.1013124 58.4851007,83.497068 59.7561185,80.3124373 C62.2031367,74.1809121 62.5726486,73.3330727 63.1517651,72.518568 C64.2170407,71.0205719 66.1567849,70.2662764 68.0597066,70.610477 C70.4503324,71.042795 72.2018443,73.0653611 72.2018443,75.3938833 C72.2018443,76.4556852 71.7602326,77.6986318 69.3716668,83.3632122 C68.5726457,85.2578659 67.2859204,88.3210445 66.5121342,90.1702182 C63.0763177,98.3824515 62.336779,99.9199842 60.8764991,101.886992 C58.4457033,105.161291 55.3559662,107.077651 51.3801731,107.776647 C50.4436472,107.941253 47.7319194,108.059346 46.9746132,107.968386 M4.15913276,107.900683 C2.23200612,107.458029 1.11111057,106.020242 0.820136073,103.618332 C0.750611194,103.043114 0.732071226,99.1447576 0.751898691,89.2156559 C0.777648647,76.3890157 0.787691129,75.5727022 0.928028385,75.1034317 C1.58259225,72.9149672 3.24114686,71.2838905 5.32715073,70.7774091 C6.16402427,70.5742998 7.69408661,70.5931636 8.53430765,70.8174625 C9.73786055,71.1386647 10.8644211,71.870737 11.6783772,72.8609597 C12.1665963,73.4550417 13.1811446,75.1284974 14.4470124,77.4278193 C15.3250858,79.0222019 18.4181704,84.7795511 19.229809,86.3300043 C19.4983811,86.8432042 19.7396581,87.263377 19.7659231,87.2638938 C19.812273,87.2646691 21.4911701,84.1906374 25.1600237,77.3862155 C26.1568045,75.5373002 27.1324703,73.7992422 27.3276549,73.5240368 C28.3599706,72.0694534 30.0082253,71.0218639 31.6969073,70.7469169 C32.443656,70.6252063 33.8671136,70.645879 34.4634825,70.7869703 C35.1538388,70.9505431 36.0118273,71.3939727 36.6195263,71.9014876 C37.2133202,72.3973742 37.929169,73.4403123 38.2770509,74.3163184 C38.81265,75.6636621 38.7856125,74.831844 38.78381,89.9384255 C38.782265,105.220467 38.8183149,104.255826 38.204436,105.50575 C37.630727,106.673499 36.5422764,107.579481 35.3938284,107.844867 C34.8417494,107.972521 33.338467,107.952882 32.6578957,107.809206 C30.9274987,107.444075 29.7816257,106.323097 29.2995865,104.524055 C29.1708367,104.043673 29.1540993,103.287827 29.1286068,96.7490491 C29.1128993,92.7654183 29.0737594,89.5066243 29.041572,89.5071411 C28.9517046,89.5084331 26.3728466,93.9871753 25.548333,95.5740641 C24.6702596,97.2635412 24.2693328,97.8449611 23.4538317,98.6090761 C22.3836635,99.6122192 21.2733255,100.049705 19.8042905,100.047638 C17.7618041,100.044537 16.4707013,99.2855904 15.1814011,97.3299522 C14.6094946,96.4627321 12.90974,93.4925808 11.4399326,90.7929835 L10.5361092,89.1324482 L10.4931067,96.5208741 C10.4449543,104.747837 10.4799743,104.249108 9.85914284,105.527715 C9.32895126,106.619234 8.35895045,107.421335 7.10338264,107.807139 C6.47688623,107.999395 4.81884661,108.052111 4.15913276,107.900683 M94.219086,53.6265553 C98.3308389,53.6265553 101.663913,56.9713994 101.663913,61.097672 C101.663913,65.2236861 98.3308389,68.5687887 94.219086,68.5687887 C90.1073332,68.5687887 86.774259,65.2236861 86.774259,61.097672 C86.774259,56.9713994 90.1073332,53.6265553 94.219086,53.6265553 M94.219086,35.4467174 C98.3308389,35.4467174 101.663913,38.7915615 101.663913,42.9178341 C101.663913,47.0438482 98.3308389,50.3889508 94.219086,50.3889508 C90.1073332,50.3889508 86.774259,47.0438482 86.774259,42.9178341 C86.774259,38.7915615 90.1073332,35.4467174 94.219086,35.4467174 M94.219086,17.3495703 C98.3308389,17.3495703 101.663913,20.6946729 101.663913,24.8209454 C101.663913,28.9472179 98.3308389,32.2920621 94.219086,32.2920621 C90.1073332,32.2920621 86.774259,28.9472179 86.774259,24.8209454 C86.774259,20.6946729 90.1073332,17.3495703 94.219086,17.3495703 M94.219086,0 C98.3308389,0 101.663913,3.34510258 101.663913,7.47111671 C101.663913,11.5973892 98.3308389,14.9422334 94.219086,14.9422334 C90.1073332,14.9422334 86.774259,11.5973892 86.774259,7.47111671 C86.774259,3.34510258 90.1073332,0 94.219086,0 M73.2908099,53.6265553 C77.4023053,53.6265553 80.735637,56.9713994 80.735637,61.097672 C80.735637,65.2236861 77.4023053,68.5687887 73.2908099,68.5687887 C69.1790571,68.5687887 65.8457254,65.2236861 65.8457254,61.097672 C65.8457254,56.9713994 69.1790571,53.6265553 73.2908099,53.6265553 M73.2908099,35.4467174 C77.4023053,35.4467174 80.735637,38.7915615 80.735637,42.9178341 C80.735637,47.0438482 77.4023053,50.3889508 73.2908099,50.3889508 C69.1790571,50.3889508 65.8457254,47.0438482 65.8457254,42.9178341 C65.8457254,38.7915615 69.1790571,35.4467174 73.2908099,35.4467174 M73.2908099,17.3495703 C77.4023053,17.3495703 80.735637,20.6946729 80.735637,24.8209454 C80.735637,28.9472179 77.4023053,32.2920621 73.2908099,32.2920621 C69.1790571,32.2920621 65.8457254,28.9472179 65.8457254,24.8209454 C65.8457254,20.6946729 69.1790571,17.3495703 73.2908099,17.3495703 M50.7904991,53.6265553 C54.902252,53.6265553 58.2355837,56.9713994 58.2355837,61.097672 C58.2355837,65.2236861 54.902252,68.5687887 50.7904991,68.5687887 C46.6787463,68.5687887 43.3456721,65.2236861 43.3456721,61.097672 C43.3456721,56.9713994 46.6787463,53.6265553 50.7904991,53.6265553 M50.7904991,35.4467174 C54.902252,35.4467174 58.2355837,38.7915615 58.2355837,42.9178341 C58.2355837,47.0438482 54.902252,50.3889508 50.7904991,50.3889508 C46.6787463,50.3889508 43.3456721,47.0438482 43.3456721,42.9178341 C43.3456721,38.7915615 46.6787463,35.4467174 50.7904991,35.4467174 M28.3733606,53.6265553 C32.484856,53.6265553 35.8181877,56.9713994 35.8181877,61.097672 C35.8181877,65.2236861 32.484856,68.5687887 28.3733606,68.5687887 C24.2616078,68.5687887 20.9282761,65.2236861 20.9282761,61.097672 C20.9282761,56.9713994 24.2616078,53.6265553 28.3733606,53.6265553 M28.3733606,35.4467174 C32.484856,35.4467174 35.8181877,38.7915615 35.8181877,42.9178341 C35.8181877,47.0438482 32.484856,50.3889508 28.3733606,50.3889508 C24.2616078,50.3889508 20.9282761,47.0438482 20.9282761,42.9178341 C20.9282761,38.7915615 24.2616078,35.4467174 28.3733606,35.4467174 M28.3733606,17.3495703 C32.484856,17.3495703 35.8181877,20.6946729 35.8181877,24.8209454 C35.8181877,28.9472179 32.484856,32.2920621 28.3733606,32.2920621 C24.2616078,32.2920621 20.9282761,28.9472179 20.9282761,24.8209454 C20.9282761,20.6946729 24.2616078,17.3495703 28.3733606,17.3495703 M7.44482704,53.6265553 C11.5565799,53.6265553 14.8896541,56.9713994 14.8896541,61.097672 C14.8896541,65.2236861 11.5565799,68.5687887 7.44482704,68.5687887 C3.3330742,68.5687887 0,65.2236861 0,61.097672 C0,56.9713994 3.3330742,53.6265553 7.44482704,53.6265553 M7.44482704,35.4467174 C11.5565799,35.4467174 14.8896541,38.7915615 14.8896541,42.9178341 C14.8896541,47.0438482 11.5565799,50.3889508 7.44482704,50.3889508 C3.3330742,50.3889508 0,47.0438482 0,42.9178341 C0,38.7915615 3.3330742,35.4467174 7.44482704,35.4467174 M7.44482704,17.3495703 C11.5565799,17.3495703 14.8896541,20.6946729 14.8896541,24.8209454 C14.8896541,28.9472179 11.5565799,32.2920621 7.44482704,32.2920621 C3.3330742,32.2920621 0,28.9472179 0,24.8209454 C0,20.6946729 3.3330742,17.3495703 7.44482704,17.3495703 M7.44482704,0 C11.5565799,0 14.8896541,3.34510258 14.8896541,7.47111671 C14.8896541,11.5973892 11.5565799,14.9422334 7.44482704,14.9422334 C3.3330742,14.9422334 0,11.5973892 0,7.47111671 C0,3.34510258 3.3330742,0 7.44482704,0" id="Fill-1" fill="#FFFFFF" mask="url(#mask-2)"></path>
                    </g>
                </g>
            </g>
        </g>
    </g>
</svg>