<?xml version="1.0" encoding="UTF-8"?>
<svg width="404px" height="72px" viewBox="0 0 404 72" version="1.1" xmlns="http://www.w3.org/2000/svg" xmlns:xlink="http://www.w3.org/1999/xlink">
    <!-- Generator: Sketch 55.2 (78181) - https://sketchapp.com -->
    <title>Group 3</title>
    <desc>Created with Sketch.</desc>
    <defs>
        <polygon id="path-1" points="0 0 404 0 404 72 0 72"></polygon>
    </defs>
    <g id="English" stroke="none" stroke-width="1" fill="none" fill-rule="evenodd">
        <g id="Web---ENG" transform="translate(-468.000000, -2395.000000)">
            <g id="VP-3" transform="translate(-1.000000, 2233.000000)">
                <g id="Logos" transform="translate(147.000000, 143.000000)">
                    <g id="Group-3" transform="translate(322.000000, 19.000000)">
                        <mask id="mask-2" fill="white">
                            <use xlink:href="#path-1"></use>
                        </mask>
                        <g id="Clip-2"></g>
                        <path d="M389.999677,71.7621413 C390.445693,71.2572982 390.637997,70.48628 390.799597,69.8180102 L392.489124,63.0358002 L390.371357,63.0358002 C390.030381,63.0358002 389.674053,63.0802975 389.244197,63.3618446 L389.807373,62.2930984 L397.262787,62.2930984 C396.848283,62.9314336 395.913427,63.0358002 395.305812,63.0358002 L393.824748,63.0358002 L392.135221,69.8180102 C392.016445,70.2783558 391.897669,70.7977616 391.897669,71.2281727 C391.897669,71.420725 391.928373,71.5987145 391.986549,71.7621413 L389.999677,71.7621413 L389.999677,71.7621413 Z M374.266305,64.2372295 C374.385889,63.7623211 374.518401,63.2429153 374.518401,62.7979414 C374.518401,62.6199519 374.487697,62.4419624 374.428713,62.2922894 C375.614857,62.2922894 376.637785,62.1450435 377.79484,62.1450435 C379.334888,62.1450435 380.033,63.1393577 380.033,64.1781693 C380.033,66.2412297 378.432352,67.6060858 376.519009,67.6060858 C375.733633,67.6060858 375.555873,67.4588399 375.318321,67.2792323 C375.407201,67.2954132 375.496889,67.2954132 375.600313,67.2954132 C376.950481,67.2954132 378.623848,66.3302245 378.623848,64.2226667 C378.623848,63.5107086 378.269136,62.7388813 377.155713,62.7388813 L375.971185,62.7388813 L374.205705,69.8180102 C374.117633,70.2039239 374.013401,70.6788323 374.013401,71.1238061 C374.013401,71.3616648 374.044105,71.5841517 374.117633,71.7621413 L372.072586,71.7621413 C372.532338,71.2427355 372.72545,70.411848 372.873314,69.8180102 L374.266305,64.2372295 L374.266305,64.2372295 Z M362.313565,65.498528 C362.313565,64.0891746 361.647773,62.7089467 360.001877,62.7089467 C357.258718,62.7089467 355.524751,65.8553161 355.524751,68.5567117 C355.524751,69.9668742 356.192966,71.3471021 357.836438,71.3471021 C360.594141,71.3471021 362.313565,68.2007326 362.313565,65.498528 L362.313565,65.498528 Z M354.073583,68.4976515 C354.073583,65.21779 356.578382,62.0560487 360.135197,62.0560487 C362.596365,62.0560487 363.782508,63.6733263 363.782508,65.5430254 C363.782508,68.8390678 361.291445,72 357.720894,72 C355.258919,72 354.073583,70.3673506 354.073583,68.4976515 L354.073583,68.4976515 Z M345.797241,62.2930984 C345.322945,62.8869362 345.130641,63.5697687 344.967425,64.2388476 L343.574434,69.8180102 C343.470202,70.262984 343.351426,70.767827 343.351426,71.1691125 C343.351426,71.3770367 343.38213,71.570398 343.439498,71.7621413 L341.424346,71.7621413 C341.88329,71.1691125 342.07721,70.48628 342.240426,69.8180102 L343.959042,62.8869362 L339.720275,62.8869362 L338.000851,69.8180102 C337.895811,70.262984 337.779459,70.767827 337.779459,71.1691125 C337.779459,71.3770367 337.807739,71.570398 337.866723,71.7621413 L335.851572,71.7621413 C336.311324,71.1691125 336.503628,70.48628 336.666844,69.8180102 L338.059835,64.2388476 C338.178611,63.7785019 338.282035,63.3173472 338.282035,62.8723734 C338.282035,62.6790121 338.266683,62.472706 338.207699,62.2930984 L345.797241,62.2930984 L345.797241,62.2930984 Z M326.091743,65.498528 C326.091743,64.0891746 325.425143,62.7089467 323.780055,62.7089467 C321.036896,62.7089467 319.303736,65.8553161 319.303736,68.5567117 C319.303736,69.9668742 319.970336,71.3471021 321.615424,71.3471021 C324.373127,71.3471021 326.091743,68.2007326 326.091743,65.498528 L326.091743,65.498528 Z M317.850953,68.4976515 C317.850953,65.21779 320.355752,62.0560487 323.913375,62.0560487 C326.373735,62.0560487 327.559878,63.6733263 327.559878,65.5430254 C327.559878,68.8390678 325.068815,72 321.498264,72 C319.037097,72 317.850953,70.3673506 317.850953,68.4976515 L317.850953,68.4976515 Z M303.601069,64.2372295 C303.719845,63.7623211 303.853165,63.2429153 303.853165,62.7979414 C303.853165,62.6199519 303.822461,62.4419624 303.763477,62.2922894 C304.94962,62.2922894 305.972548,62.1450435 307.128796,62.1450435 C308.669651,62.1450435 309.366955,63.1393577 309.366955,64.1781693 C309.366955,66.2412297 307.766308,67.6060858 305.85458,67.6060858 C305.068396,67.6060858 304.890636,67.4588399 304.653084,67.2792323 C304.741964,67.2954132 304.831652,67.2954132 304.935076,67.2954132 C306.285244,67.2954132 307.958612,66.3302245 307.958612,64.2226667 C307.958612,63.5107086 307.603092,62.7388813 306.490476,62.7388813 L305.305948,62.7388813 L303.540469,69.8180102 C303.452397,70.2039239 303.348165,70.6788323 303.348165,71.1238061 C303.348165,71.3616648 303.378869,71.5841517 303.452397,71.7621413 L301.406541,71.7621413 C301.867101,71.2427355 302.059405,70.411848 302.207269,69.8180102 L303.601069,64.2372295 L303.601069,64.2372295 Z M284.785178,69.3875992 C284.93385,70.2338585 285.77821,71.3616648 287.142921,71.3616648 C289.542681,71.3616648 290.93648,69.2249815 291.426128,67.1772929 L290.759528,67.1772929 C289.810937,67.1772929 288.149689,67.0421826 287.794169,66.3002899 C288.699129,66.4337821 289.927289,66.4337821 291.5748,66.4337821 C291.618432,66.1085466 291.648328,65.7962559 291.648328,65.498528 C291.648328,63.9556824 291.055256,62.6498865 289.291393,62.6498865 C288.357345,62.6498865 286.979705,63.2582871 286.445617,64.0746118 L286.177362,62.7243185 C286.979705,62.4573342 288.209481,62.0560487 289.542681,62.0560487 C292.078184,62.0560487 293.115656,63.6886981 293.115656,65.5430254 C293.115656,68.5267771 290.995464,72 287.172009,72 C285.585098,72 284.992834,71.5987145 284.326234,71.0647459 L284.785178,69.3875992 L284.785178,69.3875992 Z M272.594885,63.6886981 C272.581149,63.5843315 272.594885,63.3327191 272.461565,63.3327191 C272.328245,63.3327191 272.164221,63.6142661 272.119781,63.6886981 L269.957574,67.012248 L272.847789,67.012248 L272.594885,63.6886981 L272.594885,63.6886981 Z M273.558829,71.7621413 L272.951213,67.6060858 L269.556806,67.6060858 C268.608214,68.898128 267.570743,70.3527878 267.363087,71.1982381 C267.317839,71.3915994 267.288751,71.569589 267.273399,71.7621413 L265.420655,71.7621413 L265.851319,71.3471021 C266.947775,70.2783558 271.54287,63.8958132 271.899197,62.6943839 L272.017165,62.2930984 L273.765677,62.2930984 C273.973333,65.2469155 274.122005,68.4669079 274.921925,71.2136099 L275.085141,71.7621413 L273.558829,71.7621413 Z M241.810094,59.5779491 C241.781814,60.4533339 242.121982,61.0471717 243.085925,61.0471717 C244.121781,61.0471717 244.672029,60.5132031 245.115621,59.5779491 L245.531741,59.5779491 C245.070373,60.9136796 244.374685,61.8788682 242.952605,61.8788682 C241.529718,61.8788682 241.174198,60.8392476 241.424678,59.5779491 L241.810094,59.5779491 L241.810094,59.5779491 Z M238.742119,69.4175338 C238.726767,69.5065285 238.726767,69.5510259 238.757471,69.5510259 C238.786559,69.5510259 238.816455,69.5364631 238.860087,69.4919658 L244.923317,62.7680068 C245.234397,62.472706 245.560021,62.2930984 245.946245,62.2930984 L246.77606,62.2930984 C246.301764,62.8869362 246.110269,63.5697687 245.946245,64.2388476 L244.552445,69.8180102 C244.449829,70.262984 244.331053,70.7395105 244.331053,71.1691125 C244.331053,71.3770367 244.359333,71.570398 244.419125,71.7621413 L242.403974,71.7621413 C242.862917,71.1691125 243.056029,70.48628 243.219245,69.8180102 L244.566989,64.415219 C244.582341,64.3278423 244.582341,64.2534103 244.552445,64.2534103 C244.523357,64.2534103 244.478109,64.2833449 244.419125,64.3577769 L237.674751,71.7621413 L236.489415,71.7621413 C236.948359,71.1691125 237.141471,70.48628 237.304687,69.8180102 L238.697679,64.2388476 C238.816455,63.7785019 238.920687,63.3173472 238.920687,62.8723734 C238.920687,62.6790121 238.905335,62.472706 238.846351,62.2930984 L240.861502,62.2930984 C240.387206,62.8869362 240.194902,63.5697687 240.031686,64.2388476 L238.742119,69.4175338 Z M220.772203,69.4175338 C220.757659,69.5065285 220.757659,69.5510259 220.788363,69.5510259 C220.816643,69.5510259 220.845731,69.5364631 220.890979,69.4919658 L226.953402,62.7680068 C227.264482,62.472706 227.590914,62.2930984 227.97633,62.2930984 L228.806145,62.2930984 C228.331849,62.8869362 228.139545,63.5697687 227.97633,64.2388476 L226.581722,69.8180102 C226.479914,70.262984 226.359522,70.7395105 226.359522,71.1691125 C226.359522,71.3770367 226.389418,71.570398 226.44921,71.7621413 L224.43325,71.7621413 C224.892194,71.1691125 225.085306,70.48628 225.24933,69.8180102 L226.597074,64.415219 C226.612426,64.3278423 226.612426,64.2534103 226.581722,64.2534103 C226.553442,64.2534103 226.509002,64.2833449 226.44921,64.3577769 L219.704028,71.7621413 L218.518692,71.7621413 C218.979252,71.1691125 219.171556,70.48628 219.333156,69.8180102 L220.727764,64.2388476 C220.845731,63.7785019 220.949963,63.3173472 220.949963,62.8723734 C220.949963,62.6790121 220.934611,62.472706 220.875627,62.2930984 L222.891587,62.2930984 C222.417291,62.8869362 222.223371,63.5697687 222.060963,64.2388476 L220.772203,69.4175338 L220.772203,69.4175338 Z M204.668768,64.2372295 C204.786736,63.7623211 204.905512,63.2429153 204.905512,62.7979414 C204.905512,62.6053891 204.890968,62.4419624 204.831984,62.2922894 L206.817239,62.2922894 C206.358295,62.7979414 206.165183,63.5697687 206.001968,64.2372295 L205.424248,66.5527114 C205.631904,66.5527114 205.913896,66.4337821 206.268607,66.0923658 L209.041663,63.4953368 C209.471519,63.1094231 209.723615,62.7833787 209.782599,62.5754545 C209.812494,62.4573342 209.840774,62.3529676 209.840774,62.2922894 L211.679782,62.2922894 C210.82007,62.902308 210.13731,63.2728499 209.338199,64.0147426 L206.670183,66.4637167 L208.611807,70.0704317 C208.878447,70.6497067 209.277599,71.2872328 209.648471,71.7621413 L208.195687,71.7621413 C207.929047,71.7621413 207.825623,71.5987145 207.721391,71.3616648 L205.660992,67.3245387 C205.587464,67.1756748 205.513128,67.1028609 205.4396,67.1028609 C205.335368,67.1028609 205.246488,67.2501067 205.186696,67.4871564 L204.609784,69.8180102 C204.491008,70.2783558 204.372232,70.7977616 204.372232,71.2281727 C204.372232,71.420725 204.402128,71.5987145 204.461112,71.7621413 L202.475049,71.7621413 C202.920256,71.2572982 203.11256,70.4846619 203.274968,69.8180102 L204.668768,64.2372295 L204.668768,64.2372295 Z M194.036299,64.0446772 L193.991051,64.0446772 C193.798747,63.406342 193.472315,62.7089467 191.946003,62.7089467 C189.189108,62.7089467 187.498773,65.6028946 187.498773,68.1416725 C187.498773,69.7443873 188.358484,70.916691 190.271828,70.916691 C191.546043,70.916691 192.554427,70.3228532 193.101443,69.8479448 L193.072355,69.9369396 C192.909139,70.6035913 191.798139,72 189.486452,72 C187.306469,72 186.046797,70.1747983 186.046797,68.2007326 C186.046797,64.7275097 188.8045,62.0560487 192.123763,62.0560487 C192.983475,62.0560487 193.576547,62.1749781 194.569579,62.1749781 L194.036299,64.0446772 L194.036299,64.0446772 Z M171.721769,66.2557925 L172.121729,66.2557925 C173.440384,66.2557925 175.32464,65.7363867 175.32464,63.7331955 C175.32464,62.8723734 174.552192,62.7388813 173.51472,62.7388813 C173.233537,62.7388813 172.921649,62.7680068 172.580673,62.7979414 L171.721769,66.2557925 L171.721769,66.2557925 Z M171.010729,69.1351777 C170.832161,69.8778794 170.698841,70.3819134 170.698841,70.6942041 C170.698841,71.1092433 170.906497,71.2281727 171.469673,71.2281727 C173.189097,71.2281727 174.566736,70.2338585 174.566736,68.3050992 C174.566736,66.9539969 173.307064,66.7905702 171.839737,66.7905702 L171.587641,66.7905702 L171.010729,69.1351777 Z M174.078704,66.3900937 C174.078704,66.4200283 174.122336,66.4354001 174.196672,66.4645257 C175.189704,66.6716408 176.004168,67.2509158 176.004168,68.2897274 C176.004168,70.8568218 173.589056,71.8220105 171.528657,71.8220105 C170.521081,71.8220105 169.542594,71.7621413 168.535018,71.7621413 C169.17253,71.1238061 169.379378,70.3228532 169.661369,69.1804841 L170.891145,64.2372295 C171.010729,63.7623211 171.144049,63.2437243 171.144049,62.7979414 C171.144049,62.6199519 171.114153,62.4419624 171.054361,62.2930984 C172.359281,62.2930984 173.42584,62.1450435 174.73076,62.1450435 C175.722984,62.1450435 176.716824,62.6498865 176.716824,63.6886981 C176.716824,65.1142324 175.382008,65.8253815 174.196672,66.3002899 C174.122336,66.3302245 174.078704,66.3609682 174.078704,66.3900937 L174.078704,66.3900937 Z M158.8067,65.498528 C158.8067,64.0891746 158.139293,62.7089467 156.493397,62.7089467 C153.751046,62.7089467 152.017886,65.8553161 152.017886,68.5567117 C152.017886,69.9668742 152.684486,71.3471021 154.329574,71.3471021 C157.087277,71.3471021 158.8067,68.2007326 158.8067,65.498528 L158.8067,65.498528 Z M150.565103,68.4976515 C150.565103,65.21779 153.07071,62.0560487 156.627525,62.0560487 C159.087884,62.0560487 160.274028,63.6733263 160.274028,65.5430254 C160.274028,68.8390678 157.783773,72 154.212414,72 C151.751246,72 150.565103,70.3673506 150.565103,68.4976515 L150.565103,68.4976515 Z M136.417835,64.2372295 C136.536611,63.7623211 136.654579,63.2429153 136.654579,62.7979414 C136.654579,62.6053891 136.640843,62.4419624 136.580243,62.2922894 L138.566306,62.2922894 C138.107362,62.7979414 137.915058,63.5697687 137.751842,64.2372295 L137.174122,66.5527114 C137.381778,66.5527114 137.662962,66.4337821 138.018482,66.0923658 L140.790729,63.4953368 C141.219777,63.1094231 141.472681,62.7833787 141.531665,62.5754545 C141.561561,62.4573342 141.590649,62.3529676 141.590649,62.2922894 L143.428849,62.2922894 C142.569137,62.902308 141.887993,63.2728499 141.087265,64.0147426 L138.41925,66.4637167 L140.360066,70.0704317 C140.627513,70.6497067 141.028281,71.2872328 141.398345,71.7621413 L139.945562,71.7621413 C139.678922,71.7621413 139.57469,71.5987145 139.471266,71.3616648 L137.410866,67.3245387 C137.338146,67.1756748 137.262194,67.1028609 137.188666,67.1028609 C137.084434,67.1028609 136.995554,67.2501067 136.93657,67.4871564 L136.358851,69.8180102 C136.239267,70.2783558 136.121299,70.7977616 136.121299,71.2281727 C136.121299,71.420725 136.151195,71.5987145 136.210179,71.7621413 L134.224115,71.7621413 C134.669323,71.2572982 134.861627,70.4846619 135.024843,69.8180102 L136.417835,64.2372295 L136.417835,64.2372295 Z M125.785366,64.0446772 L125.740118,64.0446772 C125.547814,63.406342 125.22219,62.7089467 123.69507,62.7089467 C120.938983,62.7089467 119.247839,65.6028946 119.247839,68.1416725 C119.247839,69.7443873 120.109167,70.916691 122.020895,70.916691 C123.29511,70.916691 124.303494,70.3228532 124.852126,69.8479448 L124.82223,69.9369396 C124.658206,70.6035913 123.547206,72 121.233903,72 C119.055535,72 117.795864,70.1747983 117.795864,68.2007326 C117.795864,64.7275097 120.553567,62.0560487 123.873638,62.0560487 C124.732542,62.0560487 125.326422,62.1749781 126.318645,62.1749781 L125.785366,64.0446772 L125.785366,64.0446772 Z M107.148851,65.498528 C107.148851,64.0891746 106.481443,62.7089467 104.836355,62.7089467 C102.094004,62.7089467 100.359228,65.8553161 100.359228,68.5567117 C100.359228,69.9668742 101.025828,71.3471021 102.672532,71.3471021 C105.429427,71.3471021 107.148851,68.2007326 107.148851,65.498528 L107.148851,65.498528 Z M98.9064449,68.4976515 C98.9064449,65.21779 101.41286,62.0560487 104.969675,62.0560487 C107.430035,62.0560487 108.61537,63.6733263 108.61537,65.5430254 C108.61537,68.8390678 106.125923,72 102.553756,72 C100.092589,72 98.9064449,70.3673506 98.9064449,68.4976515 L98.9064449,68.4976515 Z M81.1150978,63.1247949 C81.1587298,62.9621772 81.1894337,62.827876 81.1894337,62.7105648 C81.1894337,62.5455199 81.1296418,62.4265906 80.9518818,62.2930984 L82.6414093,62.2930984 C82.8191693,62.2930984 83.0268252,62.323033 83.0421772,62.5163944 L83.752409,68.898128 C83.783113,69.1206149 83.752409,69.3730364 83.871993,69.3730364 C84.005313,69.3730364 84.093385,69.2249815 84.2267049,69.0170573 L88.2739758,62.9168708 C88.4816317,62.6053891 88.6739357,62.2930984 89.0448076,62.2930984 L90.6309112,62.2930984 C90.1420713,62.8578106 89.9933993,63.6595726 89.8010954,64.4006562 C89.3558875,66.1829786 88.8226077,68.0373059 88.5705117,69.8180102 C88.5115277,70.2192957 88.4525438,70.6343349 88.4525438,71.0202486 C88.4525438,71.2726701 88.4816317,71.5250916 88.5559677,71.7621413 L86.3767923,71.7621413 C86.8203842,71.0202486 87.0886401,69.9223768 87.2962961,69.0914893 L88.5268797,64.1644156 C88.5559677,64.0891746 88.5705117,63.985617 88.5705117,63.9257478 C88.5705117,63.8666876 88.5559677,63.836753 88.5115277,63.836753 C88.4072958,63.836753 88.3329598,63.9411196 88.2586238,64.0592399 L82.9823853,71.9110052 L81.9740015,64.6247612 C81.9150175,64.1935411 81.8560336,63.836753 81.7526096,63.836753 C81.6483776,63.836753 81.5740416,64.1037373 81.5150577,64.3278423 L80.299826,69.1505495 C80.107522,69.9523114 79.9742021,70.6497067 79.9742021,71.1691125 C79.9742021,71.4061622 80.0032901,71.6148954 80.0622741,71.7621413 L78.2976025,71.7621413 C78.9803624,71.0356204 79.3512343,70.1594265 79.6623142,68.898128 L81.1150978,63.1247949 L81.1150978,63.1247949 Z M20.9029543,40.8785311 L17.3582592,46.0175742 L48.5979547,46.0175742 L44.2969719,40.7304762 L20.9029543,40.8785311 L20.9029543,40.8785311 Z M44.2218279,8.38654291 L38.2604055,16.925186 L41.5069486,16.925186 L44.2218279,8.38654291 L44.2218279,8.38654291 Z M15.8472997,48.0604086 L12.3009886,53.0465425 L57.5788722,53.1193564 L50.5589701,48.1332225 L15.8472997,48.0604086 L15.8472997,48.0604086 Z M31.3180714,26.0689934 L27.1689926,31.5090006 L40.8249968,31.5090006 L40.223037,26.0689934 L31.3180714,26.0689934 L31.3180714,26.0689934 Z M36.6767259,18.8903522 L33.2047509,23.8772951 L40.4484689,24.0293952 L41.0520447,18.9655932 L36.6767259,18.8903522 L36.6767259,18.8903522 Z M25.8834649,33.5477897 L22.4139139,38.5387779 L43.3903961,38.4611097 L41.3550447,33.5477897 L25.8834649,33.5477897 L25.8834649,33.5477897 Z M1.66124754,35.8932063 C1.66124754,54.8587995 16.9817313,70.2743106 35.8452942,70.2743106 C54.712089,70.2743106 70.0293408,54.8587995 70.0293408,35.8932063 C70.0293408,17.000427 54.712089,1.58734297 35.8452942,1.58734297 C16.9817313,1.58734297 1.66124754,17.000427 1.66124754,35.8932063 L1.66124754,35.8932063 Z M4.30179082,35.8932063 C4.30179082,18.4364789 18.415123,4.23129649 35.8452942,4.23129649 C53.2795054,4.23129649 67.4647495,18.4364789 67.4647495,35.8932063 C67.4647495,53.4227476 53.2795054,67.6303571 35.8452942,67.6303571 C18.415123,67.6303571 4.30179082,53.4227476 4.30179082,35.8932063 L4.30179082,35.8932063 Z M0.754671793,35.8932063 C0.754671793,16.4721217 16.4508755,0.680405421 35.8452942,0.680405421 C55.2389049,0.680405421 71.0118685,16.4721217 71.0118685,35.8932063 C71.0118685,55.3879138 55.2389049,71.1812482 35.8452942,71.1812482 C16.4508755,71.1812482 0.754671793,55.3879138 0.754671793,35.8932063 L0.754671793,35.8932063 Z M0,35.8932063 C0,55.7665461 16.0751556,71.8632717 35.8452942,71.8632717 C55.6162408,71.8632717 71.6913963,55.7665461 71.6913963,35.8932063 C71.6913963,16.0934894 55.6162408,0 35.8452942,0 C16.0751556,0 0,16.0934894 0,35.8932063 L0,35.8932063 Z M97.5740533,37.7815134 L107.762122,22.7438254 C107.989978,22.4420523 108.592746,21.3061555 109.195514,21.3061555 C109.723946,21.3061555 109.79909,22.2899521 109.79909,22.7438254 C109.79909,22.7438254 110.32833,31.3585186 111.006242,37.0242488 C111.459529,41.0290132 112.438825,48.1324134 112.893729,51.8345956 L88.5931357,51.8345956 C89.6516154,48.4349956 93.7239343,42.7692653 97.5740533,37.7815134 L97.5740533,37.7815134 Z M119.005439,51.8345956 C115.986752,40.9537722 115.534272,28.2606917 114.779601,16.5481718 L107.68617,16.5481718 L107.232075,18.2099467 C106.024115,22.7438254 88.8193757,45.864665 83.1601452,51.8345956 L80.9728898,51.8345956 L79.9919781,55.7665461 C82.6333294,54.4033081 85.4257766,54.3296851 88.0655119,54.3296851 L113.343785,54.3296851 C115.986752,54.3296851 118.702439,54.4033081 120.741023,55.7665461 L121.723551,51.8345956 L119.005439,51.8345956 Z M290.986576,41.4084545 L298.984966,29.6206935 C299.13687,29.3941614 299.66611,28.4864148 300.116166,28.4864148 C300.568646,28.4864148 300.568646,29.3181113 300.644598,29.6206935 C300.644598,29.6206935 301.021125,36.4215116 301.549557,40.8024811 C301.926085,43.977976 302.681565,49.5684653 303.059709,52.43976 L283.966674,52.43976 C284.720538,49.7958065 287.964657,45.4132189 290.986576,41.4084545 L290.986576,41.4084545 Z M307.885892,52.43976 C305.476436,43.901926 305.095868,33.9288491 304.493909,24.7850417 L298.984966,24.7850417 L298.604398,26.0689934 C297.624294,29.6967436 284.116962,47.7562083 279.740027,52.43976 L278.00606,52.43976 L277.174628,55.5392049 C279.286739,54.4801672 281.475611,54.4801672 283.512578,54.4801672 L303.362709,54.4801672 C305.476436,54.4801672 307.585316,54.4801672 309.171419,55.5392049 L310.001235,52.43976 L307.885892,52.43976 Z M233.70828,41.4084545 L241.71071,29.6206935 C241.93291,29.3941614 242.388622,28.4864148 242.840293,28.4864148 C243.293581,28.4864148 243.367917,29.3181113 243.367917,29.6206935 C243.367917,29.6206935 243.745253,36.4215116 244.273685,40.8024811 C244.647789,43.977976 245.404077,49.5684653 245.784645,52.43976 L226.689994,52.43976 C227.523042,49.7958065 230.692825,45.4132189 233.70828,41.4084545 L233.70828,41.4084545 Z M250.613251,52.43976 C248.197332,43.901926 247.821612,33.9288491 247.293988,24.7850417 L241.71071,24.7850417 L241.328526,26.0689934 C240.34923,29.6967436 226.84109,47.7562083 222.463347,52.43976 L220.730995,52.43976 L219.900372,55.5392049 C222.013291,54.4801672 224.201355,54.4801672 226.23509,54.4801672 L246.082797,54.4801672 C248.197332,54.4801672 250.310251,54.4801672 251.896355,55.5392049 L252.723747,52.43976 L250.613251,52.43976 Z M403.272689,38.914174 C405.461561,30.6789222 402.897778,23.9541542 393.0119,23.9541542 C383.201167,23.9541542 376.107737,31.3585186 373.76777,40.1245028 C371.578898,48.4349956 374.145913,55.0869497 384.030983,55.0869497 C393.841716,55.0869497 401.007866,47.7562083 403.272689,38.914174 L403.272689,38.914174 Z M398.063515,40.2749848 C396.330355,46.9228937 391.728797,53.0465425 385.011086,53.0465425 C377.390033,53.0465425 377.390033,44.9609637 379.048048,38.840551 C380.786056,32.188597 385.314086,25.9937524 392.103709,25.9937524 C399.649618,25.9937524 399.649618,34.0793312 398.063515,40.2749848 L398.063515,40.2749848 Z M343.12761,38.914174 C345.318905,30.6789222 342.753506,23.9541542 332.865205,23.9541542 C323.054471,23.9541542 315.888321,31.3585186 313.625114,40.1245028 C311.438667,48.4349956 314.001642,55.0869497 323.886711,55.0869497 C333.695829,55.0869497 340.792491,47.7562083 343.12761,38.914174 L343.12761,38.914174 Z M337.848947,40.2749848 C336.112556,46.9228937 331.584525,53.0465425 324.792479,53.0465425 C317.245761,53.0465425 317.245761,44.9609637 318.831057,38.840551 C320.568256,32.188597 325.169815,25.9937524 331.885909,25.9937524 C339.506963,25.9937524 339.506963,34.0793312 337.848947,40.2749848 L337.848947,40.2749848 Z M261.854144,52.5158101 L267.287943,52.5158101 C270.230678,52.5158101 273.402885,51.8345956 276.120188,49.8726656 L274.158365,54.103153 C272.873645,54.2536351 271.289966,54.4033081 269.630334,54.4033081 L255.971098,54.4033081 C257.405297,52.8192013 258.234305,50.3993528 258.764353,48.2845136 L263.365912,30.8277861 C263.895152,28.713756 264.574679,26.2947165 263.96868,24.7098007 L280.343603,24.7098007 L279.588123,28.3375508 C278.306636,26.8990718 275.891524,26.5964897 273.099885,26.5964897 L268.724566,26.5964897 L265.782639,37.7062723 C269.404902,37.7062723 273.251789,37.7062723 276.948388,37.3276401 C274.609229,40.0468346 269.251382,40.0468346 266.382983,40.0468346 L265.179063,40.0468346 L261.854144,52.5158101 L261.854144,52.5158101 Z M224.201355,38.914174 C226.389418,30.6789222 223.823211,23.9541542 213.860573,23.9541542 C204.1266,23.9541542 196.958026,31.3585186 194.619675,40.1245028 C192.507563,48.4349956 195.070539,55.0869497 204.956416,55.0869497 C214.769573,55.0869497 221.860579,47.7562083 224.201355,38.914174 L224.201355,38.914174 Z M218.917844,40.2749848 C217.183068,46.9228937 212.655038,53.0465425 205.861376,53.0465425 C198.239514,53.0465425 198.31789,44.9609637 199.900761,38.840551 C201.637961,32.188597 206.164375,25.9937524 212.956422,25.9937524 C220.577476,25.9937524 220.577476,34.0793312 218.917844,40.2749848 L218.917844,40.2749848 Z M194.317483,24.7098007 C192.734611,26.5228667 192.205371,29.0171472 191.601795,31.3593276 C190.168404,36.8761939 188.356868,42.6948334 187.526245,48.2845136 C187.224861,50.3993528 186.847525,52.5158101 187.375149,54.4041171 L180.432007,54.4041171 C181.94135,52.0635548 182.847118,48.5862867 183.525838,46.0175742 L187.600581,30.6020631 C187.675725,30.1498079 187.826821,29.5446435 187.526245,29.5446435 C187.146485,29.5446435 186.921861,29.9216576 186.694813,30.2258579 L169.715505,54.8587995 L166.774386,32.0373059 C166.62329,30.6789222 166.545722,29.5446435 166.094858,29.5446435 C165.717523,29.5446435 165.489667,30.37634 165.265043,31.0559364 L161.264636,46.1688653 C160.282108,49.7966155 159.52986,52.8192013 160.133436,54.4041171 L154.54935,54.4041171 L155.152117,53.7269479 C157.489661,51.3079084 159.680956,43.977976 160.962444,38.914174 L164.057891,27.3545632 C164.358467,26.0698025 164.510371,25.389397 163.528651,24.7098007 L169.41493,24.7098007 C169.944977,24.7098007 170.621273,24.7850417 170.621273,25.389397 L172.280097,45.7158011 C172.359281,46.3962065 172.280097,47.1510439 172.661473,47.1510439 C173.113145,47.1510439 173.337768,46.6979796 173.791864,46.0175742 L187.073765,26.6741578 C187.751677,25.6911702 188.2793,24.7098007 189.486452,24.7098007 L194.317483,24.7098007 L194.317483,24.7098007 Z M154.776398,38.914174 C156.889317,30.6789222 154.321494,23.9541542 144.435616,23.9541542 C134.626499,23.9541542 127.533069,31.3585186 125.19391,40.1245028 C123.005846,48.4349956 125.568822,55.0869497 135.532267,55.0869497 C145.26624,55.0869497 152.43643,47.7562083 154.776398,38.914174 L154.776398,38.914174 Z M149.492887,40.2749848 C147.756496,46.9228937 143.227657,53.0465425 136.437227,53.0465425 C128.818597,53.0465425 128.818597,44.9609637 130.475804,38.840551 C132.213004,32.188597 136.740227,25.9937524 143.533081,25.9937524 C151.153327,25.9937524 151.077375,34.0793312 149.492887,40.2749848 L149.492887,40.2749848 Z M353.693015,38.7628829 L354.523639,38.7628829 C359.804725,38.7628829 364.33518,39.5177203 362.598789,45.8662831 C361.315685,50.8532261 357.922894,52.7439603 353.166199,52.7439603 C350.070752,52.7439603 350.373752,51.5352496 351.806336,46.1688653 L353.693015,38.7628829 L353.693015,38.7628829 Z M348.486264,42.6948334 C347.582113,46.3209655 346.299817,51.0805672 343.88309,54.4041171 C347.055297,54.4041171 350.149128,54.5578354 353.241343,54.5578354 C359.581717,54.5578354 365.76938,52.43976 367.653635,45.1122548 C369.011883,40.0476437 365.69262,38.3122458 361.692213,37.3276401 L361.692213,37.252399 C365.388812,35.8932063 369.091875,33.9288491 370.147931,29.8464166 C371.199138,25.8416522 368.333163,24.2551183 364.710092,24.2551183 C360.635349,24.2551183 356.33679,24.7098007 352.183671,24.7098007 C352.862391,26.2947165 352.183671,28.714565 351.65928,30.8294042 L348.486264,42.6948334 Z M357.013086,26.2947165 C358.069142,26.2210936 359.05167,26.0698025 359.955821,26.0698025 C363.732412,26.0698025 366.449716,26.6741578 365.316092,30.9046453 C364.032988,35.8171562 359.504149,37.101917 355.429407,37.101917 L354.147919,37.101917 L357.013086,26.2947165 Z" id="Fill-1" fill="#FFFFFF" mask="url(#mask-2)"></path>
                    </g>
                </g>
            </g>
        </g>
    </g>
</svg>