<?xml version="1.0" encoding="UTF-8"?>
<svg width="287px" height="35px" viewBox="0 0 287 35" version="1.1" xmlns="http://www.w3.org/2000/svg" xmlns:xlink="http://www.w3.org/1999/xlink">
    <!-- Generator: Sketch 55.2 (78181) - https://sketchapp.com -->
    <title>Group 3</title>
    <desc>Created with Sketch.</desc>
    <defs>
        <filter x="-4.3%" y="-44.4%" width="108.6%" height="188.9%" filterUnits="objectBoundingBox" id="filter-1">
            <feOffset dx="0" dy="2" in="SourceAlpha" result="shadowOffsetOuter1"></feOffset>
            <feGaussianBlur stdDeviation="2" in="shadowOffsetOuter1" result="shadowBlurOuter1"></feGaussianBlur>
            <feColorMatrix values="0 0 0 0 0   0 0 0 0 0   0 0 0 0 0  0 0 0 0.5 0" type="matrix" in="shadowBlurOuter1" result="shadowMatrixOuter1"></feColorMatrix>
            <feMerge>
                <feMergeNode in="shadowMatrixOuter1"></feMergeNode>
                <feMergeNode in="SourceGraphic"></feMergeNode>
            </feMerge>
        </filter>
        <polygon id="path-2" points="0 0 279 0 279 27 0 27"></polygon>
    </defs>
    <g id="English" stroke="none" stroke-width="1" fill="none" fill-rule="evenodd">
        <g id="Web---ENG" transform="translate(-661.000000, -2593.000000)">
            <g id="VP-3" transform="translate(-1.000000, 2233.000000)">
                <g id="Logos" transform="translate(147.000000, 143.000000)">
                    <g id="Group-3" filter="url(#filter-1)" transform="translate(519.000000, 219.098958)">
                        <mask id="mask-3" fill="white">
                            <use xlink:href="#path-2"></use>
                        </mask>
                        <g id="Clip-2"></g>
                        <path d="M119.793716,26.1952814 L129.299694,26.1952814 L129.299694,18.071753 L124.742803,18.071753 L119.793716,26.1952814 Z M169.012478,21.4758506 L169.012478,5.147446 L172.051682,5.147446 L169.186219,0.426763697 L157.42543,0.426763697 L157.42543,5.147446 L160.115874,5.147446 L160.115874,10.3336887 L153.256904,10.3336887 L153.256904,5.147446 L155.99206,5.147446 L155.99206,0.426763697 L153.256904,0.426763697 L144.359022,0.426763697 L141.668579,0.426763697 L141.668579,5.147446 L144.359022,5.147446 L144.359022,21.4758506 L141.668579,21.4758506 L141.668579,26.1952814 L155.99206,26.1952814 L155.99206,21.4758506 L153.256904,21.4758506 L153.256904,16.0317975 L160.115874,16.0317975 L160.115874,21.4758506 L157.42543,21.4758506 L157.42543,26.1952814 L169.229655,26.1952814 L172.138553,21.4758506 L169.012478,21.4758506 Z M77.082608,0.426763697 L74.3921646,0.426763697 L74.3921646,5.147446 L78.4278296,5.147446 L91.2336247,26.1952814 L100.95678,26.1952814 L100.95678,24.1090201 L86.6320212,0.426763697 L77.082608,0.426763697 Z M116.668918,21.4758506 L116.668918,16.0317975 L122.614466,16.0317975 L122.614466,10.3336887 L116.668918,10.3336887 L116.668918,5.147446 L120.40309,5.147446 L117.581063,0.426763697 L104.993722,0.426763697 L104.993722,5.147446 L107.682888,5.147446 L107.682888,21.4758506 L104.993722,21.4758506 L104.993722,26.1952814 L118.143169,26.1952814 L121.053344,21.4758506 L116.668918,21.4758506 Z M91.3217731,5.147446 L93.9700586,5.147446 L93.9700586,9.90942802 L100.95678,21.3469454 L100.95678,5.147446 L103.605065,5.147446 L103.605065,0.426763697 L91.3217731,0.426763697 L91.3217731,5.147446 Z M184.899635,21.4758506 L184.899635,16.0317975 L190.84646,16.0317975 L190.84646,10.3336887 L184.899635,10.3336887 L184.899635,5.147446 L188.632529,5.147446 L185.810502,0.426763697 L170.836767,0.426763697 L173.702229,5.147446 L175.914883,5.147446 L175.914883,21.4758506 L173.744387,21.4758506 L170.878925,26.1952814 L186.419876,26.1952814 L189.327497,21.4758506 L184.899635,21.4758506 Z M266.367947,21.4758506 L266.367947,16.0317975 L272.098872,16.0317975 L272.098872,10.3336887 L266.367947,10.3336887 L266.367947,5.147446 L270.100841,5.147446 L267.280091,0.426763697 L254.694029,0.426763697 L254.694029,5.147446 L257.384472,5.147446 L257.384472,21.4758506 L254.694029,21.4758506 L254.694029,26.1952814 L267.889465,26.1952814 L270.70766,21.4758506 L266.367947,21.4758506 Z M242.627914,17.6900436 L244.62339,17.6900436 L244.62339,20.8776305 L247.879772,26.1952814 L252.740711,26.1952814 L252.740711,17.6900436 L252.741988,17.6900436 L252.741988,13.1808659 L242.627914,13.1808659 L242.627914,17.6900436 Z M237.720985,13.3948735 C237.720985,7.56911097 239.632145,5.31514786 242.800378,5.147446 L239.8506,0.341661259 C232.558553,1.359136 228.694074,5.78321127 228.694074,13.3548253 C228.694074,23.1728933 234.985828,26.4918884 240.848338,26.4918884 C243.626929,26.4918884 245.967334,25.7259664 245.967334,25.7259664 L243.23601,21.261843 C239.8506,21.261843 237.720985,19.3908408 237.720985,13.3948735 L237.720985,13.3948735 Z M211.072054,5.147446 L208.207868,0.426763697 L199.396858,0.426763697 L199.396858,5.147446 L202.086024,5.147446 L202.086024,21.4758506 L199.396858,21.4758506 L199.396858,26.1952814 L213.936239,26.1952814 L211.072054,21.4758506 L211.072054,5.147446 Z M188.025711,26.1952814 L197.530411,26.1952814 L197.530411,18.071753 L192.97352,18.071753 L188.025711,26.1952814 Z M213.720339,0.426763697 C212.939778,0.385463984 210.637699,0.426763697 209.857138,0.426763697 L212.591017,4.93218689 C215.631499,4.93218689 217.974459,7.31380365 217.974459,13.3948735 C217.974459,19.136785 216.019863,21.5997497 212.85163,21.7699546 L215.455202,26.023825 C223.181604,25.2153518 227.002647,21.1329378 227.002647,13.3548253 C227.002647,5.31514786 222.314172,1.06503198 213.720339,0.426763697 L213.720339,0.426763697 Z M274.444387,18.071753 L269.496577,26.1952814 L279,26.1952814 L279,18.071753 L274.444387,18.071753 Z M196.880156,8.54528599 L196.880156,0.426763697 L187.372901,0.426763697 L192.365424,8.54528599 L196.880156,8.54528599 Z M128.648162,8.54528599 L128.648162,0.426763697 L119.142184,0.426763697 L124.134707,8.54528599 L128.648162,8.54528599 Z M251.00457,8.54528599 L251.00457,0.426763697 L241.498592,0.426763697 L246.489837,8.54528599 L251.00457,8.54528599 Z M84.1153196,17.1794289 L77.082608,5.57045518 L77.082608,21.4758506 L74.3921646,21.4758506 L74.3921646,26.1952814 L86.5029923,26.1952814 L86.5029923,21.4758506 L84.1153196,21.4758506 L84.1153196,17.1794289 Z M0,18.071753 L0,26.1952814 L9.98121277,26.1952814 L5.07683854,18.071753 L0,18.071753 Z M278.349746,8.54528599 L278.349746,0.426763697 L268.84249,0.426763697 L273.835013,8.54528599 L278.349746,8.54528599 Z M8.80973291,6.97464541 C8.80973291,5.23129693 10.9367928,5.147446 12.2398566,5.147446 L14.1918972,5.147446 L11.1526926,0.172707889 C10.8933574,0.172707889 9.45998727,0.212756095 9.24280998,0.212756095 C3.9922296,0.680819505 0.346206151,3.61560211 0.346206151,8.0809771 C0.346206151,17.2219802 12.0635597,15.3947808 12.0635597,19.2631872 C12.0635597,21.3882451 9.59029364,21.3469454 8.63471357,21.3043942 L11.8910954,26.6182905 C14.365639,26.6182905 21.4405086,26.1952814 21.4405086,18.1568555 C21.4405086,9.56651525 8.80973291,11.3111152 8.80973291,6.97464541 L8.80973291,6.97464541 Z M53.4281685,13.4787244 C53.4281685,6.12362103 57.4651111,5.65680912 58.2035138,5.65680912 L58.594433,5.65680912 L55.2946157,0.256558821 C48.3934879,1.44674145 44.4434162,6.67678687 44.4434162,13.4374247 C44.4434162,20.9614814 49.3477905,26.7471957 57.7691593,27 L59.2459648,27 L60.8939572,26.9174006 L57.7270013,21.7286549 C57.1623404,21.5997497 53.4281685,20.3670159 53.4281685,13.4787244 L53.4281685,13.4787244 Z M59.2012519,0 L57.7270013,0 C57.4229531,0 56.9017276,0.0438027255 56.9017276,0.0438027255 L60.3305738,5.74191156 C61.3283118,6.42147956 63.5856781,8.41763234 63.5856781,13.4374247 C63.5856781,20.9214332 59.3315582,21.6873551 59.3315582,21.6873551 L62.3707628,26.6620933 C68.9665649,25.2992027 72.5704304,19.9878094 72.5704304,13.3948735 C72.5704304,5.8670622 67.7094916,0.256558821 59.2012519,0 L59.2012519,0 Z M39.8009323,8.54528599 L43.4891137,8.54528599 L43.4891137,0.426763697 L34.8518451,0.426763697 L39.8009323,8.54528599 Z M35.8495831,4.76323352 L33.2038527,0.426763697 L28.2547655,0.426763697 L26.8661083,0.426763697 L21.8748632,0.426763697 L26.8661083,8.59159173 L26.8661083,21.4758506 L24.2612584,21.4758506 L24.2612584,26.1527301 L39.8009323,26.1527301 L39.8009323,21.4758506 L35.8495831,21.4758506 L35.8495831,4.76323352 Z M20.2664737,0.426763697 L23.8716168,6.37892834 L22.3079403,8.59159173 L17.9222365,8.59159173 L12.9769819,0.426763697 L16.6230053,0.426763697 L20.2664737,0.426763697 Z" id="Fill-1" fill="#FEFEFE" mask="url(#mask-3)"></path>
                    </g>
                </g>
            </g>
        </g>
    </g>
</svg>