<?xml version="1.0" encoding="UTF-8"?>
<svg width="322px" height="80px" viewBox="0 0 322 80" version="1.1" xmlns="http://www.w3.org/2000/svg" xmlns:xlink="http://www.w3.org/1999/xlink">
    <!-- Generator: Sketch 55.2 (78181) - https://sketchapp.com -->
    <title>Logo</title>
    <desc>Created with Sketch.</desc>
    <g id="English" stroke="none" stroke-width="1" fill="none" fill-rule="evenodd">
        <g id="Tablet---ENG" transform="translate(-225.000000, -260.000000)" fill="#FFFFFF">
            <g id="VP-1" transform="translate(6.000000, 98.000000)">
                <g id="Logo" transform="translate(201.000000, 162.000000)">
                    <g id="Group-2" transform="translate(0.000000, 59.030556)" font-family="Geometria-Medium, Geometria" font-size="12" font-weight="400" letter-spacing="1.06483477" line-spacing="25">
                        <text id="Product-consultancy">
                            <tspan x="17.8965568" y="9">PRODUCT CONSULTANCY AND DESIGN STUDIO</tspan>
                        </text>
                    </g>
                    <g id="Group-3" transform="translate(49.000000, 0.000000)">
                        <path d="M47.075,41.017434 C50.0857416,38.0528948 52.8804659,35.3033722 55.6643893,32.5619126 C59.9928367,37.8996956 67.7127562,38.6226884 72.9376755,34.0697154 C76.7827841,30.7154589 78.999662,21.6229514 73.2887037,15.0918271 C76.083428,12.3449921 78.8673514,9.60353255 81.7916861,6.725 C88.2884074,13.0867988 89.9841435,21.1284136 88.3235102,29.9467752 C86.5926713,39.1441033 80.9546189,45.178002 71.8683897,47.5754353 C62.4905371,50.050812 54.1576684,47.9167739 47.075,41.017434 L47.075,41.017434 Z M210.716667,40.0856225 C206.197832,46.6083357 195.704667,50.0660282 186.316045,47.9472371 C176.979115,45.8393536 170.107003,38.7821706 168.618862,29.5352975 C167.100794,20.1166305 168.923563,11.7259999 176.309859,5.23055556 C179.237172,8.15923197 181.99309,10.9133876 184.882315,13.8038876 C180.983766,17.3133909 179.800326,21.9409178 180.744357,27.2010824 C181.304791,30.3233678 182.787491,32.9111834 185.385617,34.7791008 C190.810396,38.6867296 197.736918,37.2251183 202.076197,31.4577527 C204.886526,34.2637192 207.729502,37.0996815 210.716667,40.0856225 L210.716667,40.0856225 Z M23.2234471,47.075 L11.3687096,47.075 L11.3687096,11.2959086 L0,11.2959086 L0,0.747222222 L34.3722222,0.747222222 L34.3722222,11.2175701 L23.2234471,11.2175701 L23.2234471,47.075 L23.2234471,47.075 Z M112.083333,0.885932056 C119.675733,0.885932056 127.159047,0.519651401 134.593272,0.97750222 C144.241948,1.57001505 150.76803,10.7297247 149.216279,20.7216455 C147.779068,29.9513794 141.531155,35.2462894 132.024292,35.286688 C129.419859,35.297461 126.812699,35.2893813 123.951913,35.2893813 L123.951913,47.075 L112.083333,47.075 L112.083333,0.885932056 Z M123.291667,11.2761164 L123.291667,24.598383 C126.338429,24.598383 129.269661,24.7827647 132.160593,24.5048161 C133.262156,24.4002414 134.610899,23.4810849 135.250343,22.5206488 C137.120313,19.7053877 137.257337,16.5516349 135.51633,13.6373031 C134.887633,12.5888041 133.503962,11.5045296 132.367472,11.3834431 C129.417432,11.066967 126.410971,11.2761164 123.291667,11.2761164 L123.291667,11.2761164 Z M260.002703,15.1032355 L248.887693,15.1032355 C246.891149,10.6365843 241.114845,9.1720199 237.283121,12.325427 C236.331343,13.1063479 235.568281,14.8141057 235.707765,15.9787316 C235.833575,17.024463 237.160046,18.4403888 238.237633,18.7592423 C240.857756,19.5347588 243.647448,19.7428243 246.360561,20.2211045 C248.28873,20.5615752 250.23878,20.8534072 252.123189,21.3668154 C256.887546,22.6692509 260.306287,25.4119315 261.214304,30.4649489 C262.185226,35.87465 260.98183,40.6358354 256.463622,44.1864583 C252.093105,47.6208889 246.951319,48.7206632 241.516889,48.55313 C236.927572,48.4126183 232.609019,47.2560988 228.873019,44.453971 C225.194454,41.6923754 223.769523,37.8877505 223.419444,33.3535455 L234.725903,33.3535455 C236.916632,37.806686 244.71683,39.3820385 248.570434,36.131354 C250.350914,34.6289596 250.27707,32.1808132 248.17933,31.0972517 C246.746194,30.3595652 245.045029,30.0353074 243.420444,29.7515818 C240.491267,29.2435779 237.48004,29.1246834 234.594623,28.4518484 C228.777295,27.0980721 225.333939,23.306958 224.321992,17.516254 C223.25808,11.4418245 225.574618,6.06725144 230.812129,3.12461188 C238.295068,-1.07722881 245.980397,-1.04480303 253.422311,3.24350641 C257.811974,5.77271727 259.969883,9.79081188 260.002703,15.1032355 L260.002703,15.1032355 Z" id="Fill-1"></path>
                    </g>
                </g>
            </g>
        </g>
    </g>
</svg>